<svg width="17" height="25" viewBox="0 0 17 25" fill="none" xmlns="http://www.w3.org/2000/svg">
<g clip-path="url(#clip0_966_31178)">
<path d="M0 14.3636C0.62624 13.4539 1.25476 12.5453 1.87872 11.6339C3.70725 8.9624 5.5335 6.28976 7.36146 3.61826C7.41964 3.53327 7.48694 3.45457 7.54968 3.37244C7.55082 3.51388 7.54911 3.65248 7.52743 3.79506C7.43276 4.42701 7.35462 5.0618 7.27135 5.69546C7.18523 6.34793 7.10081 7.00041 7.01526 7.65232C6.93085 8.2951 6.83275 8.93674 6.76545 9.5818C6.73009 9.92344 6.80652 9.98161 7.14587 9.98332C7.76128 9.98617 8.37611 9.98846 8.99151 9.99074C10.8429 9.99131 12.6942 9.99188 14.545 9.99302C14.6579 9.99302 14.7708 10.001 14.8838 10.0056C14.853 10.074 14.8336 10.1504 14.7902 10.2098C13.9775 11.3305 13.163 12.4501 12.3469 13.5685C10.7088 15.8128 9.07421 18.0594 7.42648 20.2963C7.12021 20.7121 6.85442 21.1604 6.48541 21.5283C6.48997 21.4815 6.49054 21.4342 6.4991 21.388C6.88865 19.3821 7.27534 17.3756 7.67515 15.3714C7.72363 15.1284 7.67915 15.0742 7.4299 15.0754C5.27171 15.0856 3.11352 15.0754 0.955901 15.0868C0.552666 15.0891 0.208747 15.0343 0.000570347 14.6465C0.000570347 14.5518 0.000570347 14.4571 0.000570347 14.3619L0 14.3636Z" fill="#FAD208"/>
<path d="M6.07819 25C5.8837 24.8608 5.83978 24.6983 5.89339 24.4496C6.08902 23.5428 6.24929 22.6285 6.42496 21.7171C6.4375 21.6532 6.46488 21.5922 6.48541 21.5294C6.85443 21.1616 7.12021 20.7133 7.42649 20.2975C9.07422 18.0606 10.7088 15.8134 12.3469 13.5697C13.163 12.4512 13.9775 11.3316 14.7902 10.2109C14.8336 10.1516 14.853 10.0752 14.8838 10.0067C15.299 10.0004 15.7159 9.97193 16.13 9.9936C16.6182 10.0193 16.8286 10.5417 16.5252 10.9609C15.794 11.9727 15.0543 12.9782 14.3186 13.9866C11.7155 17.5541 9.113 21.1216 6.51165 24.6903C6.4221 24.8129 6.32458 24.9241 6.19226 25.0006H6.07876L6.07819 25Z" fill="#F8C302"/>
<path d="M8.99095 9.99073C8.37555 9.98845 7.76072 9.98617 7.14531 9.98332C6.80653 9.98161 6.72953 9.92343 6.76489 9.58179C6.83219 8.93673 6.93029 8.29566 7.0147 7.65231C7.10025 6.99983 7.18524 6.34736 7.27079 5.69545C7.35406 5.0618 7.4322 4.427 7.52687 3.79506C7.54855 3.65247 7.55026 3.51388 7.54912 3.37243C7.70197 3.04505 7.9341 2.769 8.13372 2.47299C8.64646 1.71329 9.16662 0.958723 9.68449 0.202443C9.77974 0.0632785 9.8921 -0.0536425 10.0826 0.0256356C10.2794 0.107195 10.2851 0.269744 10.2605 0.452255C10.0929 1.69561 9.93088 2.93954 9.76377 4.18346C9.58183 5.53918 9.3959 6.89432 9.21396 8.25003C9.13639 8.83008 9.06453 9.41069 8.98981 9.99073H8.99095Z" fill="#F8C302"/>
</g>
<defs>
<clipPath id="clip0_966_31178">
<rect width="16.6655" height="25" fill="white"/>
</clipPath>
</defs>
</svg>
