<svg width="48" height="48" viewBox="0 0 48 48" fill="none" xmlns="http://www.w3.org/2000/svg">
<g id="55*55" clip-path="url(#clip0_991_18704)">
<path id="Vector" d="M4.79318 27.4146L14.7824 23.7989L20.1413 38.6043C21.1417 41.3682 19.7151 44.4208 16.9595 45.4183C14.2024 46.4162 11.1534 44.982 10.1535 42.2195L4.79457 27.4141L4.79318 27.4146Z" fill="#FFE866" stroke="#231F20" stroke-width="0.5" stroke-linecap="round" stroke-linejoin="round"/>
<path id="Vector_2" d="M3.10323 20.3435C0.42504 21.3129 -0.469979 25.6224 1.10265 29.9672C2.67529 34.312 6.12125 37.0503 8.79944 36.0809L17.8937 32.7892L12.1974 17.0518L3.10323 20.3435Z" fill="white" stroke="#231F20" stroke-width="0.5" stroke-miterlimit="10"/>
<path id="Vector_3" d="M46.0112 13.7113C49.2759 22.731 47.3179 31.7072 41.6392 33.7627C40.5381 34.1612 39.3776 34.2707 38.1983 34.1204C35.1129 33.7314 31.901 31.575 29.2878 28.2154C30.4721 27.2425 32.1463 25.868 34.5089 23.9274C35.2434 23.3243 36.0454 22.6654 36.9199 21.9474C38.1429 20.9432 38.9059 19.0139 38.032 16.5994C37.1581 14.185 35.3369 13.191 33.754 13.2009C32.6226 13.2089 31.5847 13.2159 30.6343 13.2227C27.5769 13.244 25.4109 13.2594 23.8787 13.2713C23.7362 9.01739 24.8238 5.30482 26.9454 3.03116C27.7553 2.1608 28.717 1.50217 29.8181 1.1036C35.4968 -0.951831 42.747 4.69298 46.0112 13.7113Z" fill="#EDEDED" stroke="#231F20" stroke-width="0.5" stroke-linecap="round" stroke-linejoin="round"/>
<path id="Vector_4" d="M38.0358 16.5991C38.9097 19.0135 38.1467 20.9428 36.9237 21.947C36.0493 22.6651 35.2473 23.3239 34.5127 23.927C32.1501 25.8676 30.4759 27.2421 29.2917 28.215C27.7552 26.2396 26.4248 23.8477 25.45 21.1546C24.4752 18.4614 23.9665 15.7721 23.8826 13.2709C25.4147 13.259 27.5808 13.2436 30.6381 13.2223C31.5885 13.2156 32.6264 13.2085 33.7579 13.2005C35.3408 13.1906 37.1614 14.1833 38.0358 16.5991Z" fill="white" stroke="#231F20" stroke-width="0.5" stroke-miterlimit="10"/>
<path id="Vector_5" d="M23.8806 13.2706C23.9645 15.7718 24.4733 18.4611 25.4481 21.1543C26.4229 23.8474 27.7533 26.2393 29.2897 28.2147C31.9029 31.5744 35.1148 33.7307 38.2002 34.1197L17.8919 32.7888C15.2137 33.7582 11.7683 31.0214 10.1951 26.6751C8.62198 22.3289 9.51801 18.0222 12.1962 17.0528L26.9468 3.0291C24.8257 5.30416 23.7381 9.01673 23.8806 13.2706Z" fill="url(#paint0_linear_991_18704)" stroke="#231F20" stroke-width="0.5" stroke-linecap="round" stroke-linejoin="round"/>
<path id="Vector_6" d="M35.8806 21.1897C37.1076 20.7456 37.5564 18.8775 36.8831 17.0171C36.2097 15.1567 34.6691 14.0086 33.4421 14.4527C32.2151 14.8968 31.7663 16.765 32.4397 18.6254C33.1131 20.4858 34.6536 21.6339 35.8806 21.1897Z" fill="black" stroke="#231F20" stroke-width="0.5" stroke-linecap="round" stroke-linejoin="round"/>
</g>
<defs>
<linearGradient id="paint0_linear_991_18704" x1="14.4077" y1="18.8211" x2="33.256" y2="33.1396" gradientUnits="userSpaceOnUse">
<stop stop-color="white"/>
<stop offset="1" stop-color="#FFE866"/>
</linearGradient>
<clipPath id="clip0_991_18704">
<rect width="48" height="48" fill="white"/>
</clipPath>
</defs>
</svg>
