<svg width="14" height="12" viewBox="0 0 14 12" fill="none" xmlns="http://www.w3.org/2000/svg">
<g clip-path="url(#clip0_1142_37689)">
<path d="M10.7188 0C10.7827 0 10.8441 0.0254116 10.8893 0.0706447C10.9346 0.115878 10.96 0.177227 10.96 0.241196V1.60637H13.289C13.3433 1.60646 13.396 1.62489 13.4386 1.65869C13.4811 1.69249 13.511 1.73966 13.5234 1.79257L13.5301 1.84756V3.27931C13.528 4.08334 13.2371 4.85985 12.7104 5.46741C12.1838 6.07497 11.4565 6.47317 10.6609 6.58948C10.3921 7.25651 9.95712 7.84367 9.3973 8.29507C8.83748 8.74647 8.17146 9.0471 7.46262 9.16835L7.46165 10.5528H8.18524C8.23958 10.5529 8.2923 10.5713 8.33485 10.6051C8.3774 10.6389 8.40729 10.6861 8.41968 10.739L8.42547 10.794V11.7588C8.42547 11.8228 8.40006 11.8841 8.35483 11.9294C8.30959 11.9746 8.24824 12 8.18427 12H5.28992C5.22595 12 5.1646 11.9746 5.11937 11.9294C5.07413 11.8841 5.04872 11.8228 5.04872 11.7588V10.794C5.04872 10.73 5.07413 10.6687 5.11937 10.6235C5.1646 10.5782 5.22595 10.5528 5.28992 10.5528H6.01351L6.01447 9.16643C5.30809 9.04219 4.64505 8.73992 4.08797 8.28818C3.53089 7.83644 3.09817 7.25014 2.83068 6.58466C2.04304 6.46033 1.32548 6.05941 0.806716 5.45384C0.287955 4.84826 0.00194659 4.07766 0 3.28027V1.84756C0 1.78359 0.0254117 1.72225 0.0706448 1.67701C0.115878 1.63178 0.177227 1.60637 0.241196 1.60637H2.53256V0.241196C2.53256 0.177227 2.55797 0.115878 2.60321 0.0706447C2.64844 0.0254116 2.70979 0 2.77376 0H10.7178H10.7188ZM9.48866 1.39026H3.97202V5.0439C3.97202 6.50555 5.21081 7.6903 6.73999 7.6903L6.90111 7.68644C8.35504 7.60444 9.48963 6.45345 9.48963 5.06223V1.39026H9.48866ZM12.082 3.05355H10.9822V5.19344C11.3021 5.07886 11.5791 4.86882 11.7758 4.59172C11.9725 4.31462 12.0794 3.9838 12.082 3.64399V3.05355ZM2.53353 3.05162H1.44814V3.64303C1.44814 4.32803 1.88133 4.94163 2.53739 5.18862L2.53353 5.03329V3.05162Z" fill="#262626"/>
</g>
<defs>
<clipPath id="clip0_1142_37689">
<rect width="14" height="12" fill="white"/>
</clipPath>
</defs>
</svg>
