<svg width="32" height="43" viewBox="0 0 32 43" fill="none" xmlns="http://www.w3.org/2000/svg">
<path d="M17.115 26.8735L13.0986 24.5547L6.61813 35.7793L8.95905 41L17.115 26.8735Z" fill="#FDEAAA" stroke="#D4D4D4" stroke-linecap="square"/>
<path d="M9.08228 22.2358L13.0986 24.5547L6.61813 35.7793L0.926337 36.3623L9.08228 22.2358Z" fill="#FCC409" stroke="#D4D4D4" stroke-linecap="square"/>
<path d="M14.8113 26.8735L18.8276 24.5547L25.3081 35.7793L22.9672 41L14.8113 26.8735Z" fill="#FCC409" stroke="#D4D4D4"/>
<path d="M22.844 22.2358L18.8276 24.5547L25.3081 35.7793L30.9999 36.3623L22.844 22.2358Z" fill="#FDEAAA" stroke="#D4D4D4" stroke-linecap="round"/>
<ellipse cx="15.9628" cy="14.8275" rx="13.8275" ry="13.8275" fill="#FFD850" stroke="#D4D4D4"/>
<path d="M20.1768 10.3585L20.1776 10.3578C19.8047 10.0023 19.387 9.69347 18.9339 9.44066C18.0544 8.94995 17.0413 8.67008 15.9623 8.66948L10.1126 8.938L9.84331 14.7883C9.84425 16.4787 10.5354 18.0133 11.6518 19.1221L11.7586 19.2281L11.7578 19.2289C11.9995 19.4575 12.2599 19.6666 12.5364 19.8537C13.5121 20.5138 14.6885 20.8996 15.9554 20.9003L21.8049 20.6318L22.0741 14.7815C22.0732 13.0996 21.3891 11.5721 20.2828 10.4646L20.1768 10.3585Z" fill="#737373" stroke="#737373" stroke-width="0.3"/>
<path d="M15.9702 18.4777C18.0691 18.4777 19.6613 16.9583 19.6613 14.7867C19.6613 12.615 18.0691 11.0956 15.9702 11.0956C13.8714 11.0956 12.2792 12.615 12.2792 14.7867C12.2792 16.9583 13.8714 18.4777 15.9702 18.4777Z" fill="#FFD850" stroke="#737373" stroke-width="0.3"/>
</svg>
